<?xml version="1.0" encoding="utf-8"?>
<!-- Generator: Adobe Illustrator 27.1.1, SVG Export Plug-In . SVG Version: 6.00 Build 0)  -->
<svg version="1.1" id="Layer_1" xmlns="http://www.w3.org/2000/svg" xmlns:xlink="http://www.w3.org/1999/xlink" x="0px" y="0px"
	 viewBox="0 0 500 500" style="enable-background:new 0 0 500 500;" xml:space="preserve">
<style type="text/css">
	.st0{fill:#3544B1;}
	.st1{fill:#F5C1BC;}
	.st2{fill:#FFFFFF;}
</style>
<g>
	
		<rect x="220.2" y="210.3" transform="matrix(6.539423e-02 -0.9979 0.9979 6.539423e-02 -12.4462 673.6595)" class="st0" width="266.3" height="266.3"/>
</g>
<g>
	
		<rect x="21.9" y="32.3" transform="matrix(0.9943 -0.1064 0.1064 0.9943 -22.6243 23.9987)" class="st1" width="383.3" height="383.3"/>
</g>
<path class="st2" d="M61.8,389.1l46.5-57.7c2.7-3.3,7.5-3.8,10.8-1.2c0,0,0.1,0.1,0.1,0.1l15.7-19.4c-11.6-11.7-18.8-26.9-20.6-43.5
	c-2-19.1,3.4-38,15.3-53.1c12.1-15.3,29.4-25,48.8-27.2c19.4-2.3,38.5,3.2,53.8,15.3c15.3,12.1,25,29.4,27.2,48.8
	c2.3,19.4-3.2,38.5-15.3,53.8c-12.1,15.3-29.4,25-48.8,27.2c-17.2,2-34.2-2.1-48.6-11.5L131.2,340c0,0,0.1,0.1,0.1,0.1
	c3.3,2.7,3.8,7.5,1.2,10.8L86,408.6L61.8,389.1z M244.2,253.6c0-0.2,0-0.4-0.1-0.5c-1.8-15.3-9.4-29-21.5-38.5
	c-12.1-9.6-27.1-13.8-42.4-12.1c-15.3,1.8-29,9.4-38.5,21.5c-9.4,11.9-13.7,26.8-12.1,41.9c1.6,15.1,9,28.7,20.7,38.4l0.6,0.5
	c0.1,0.1,0.1,0.1,0.2,0.2c12.1,9.6,27.1,13.8,42.4,12.1c15.3-1.8,29-9.4,38.5-21.5C241.6,283.6,245.8,268.7,244.2,253.6z"/>
</svg>
